<?xml version="1.0" encoding="utf-8"?><svg viewBox="0 0 128 102" xmlns="http://www.w3.org/2000/svg" xmlns:xlink="http://www.w3.org/1999/xlink"><style>:root>svg{display:none}:root>svg:target{display:block}</style><svg fill="none" viewBox="0 0 24 22" id="arrow" xmlns="http://www.w3.org/2000/svg"><path d="M10.94 21.06a1.5 1.5 0 002.12 0l9.547-9.545a1.5 1.5 0 10-2.122-2.122L12 17.88 3.515 9.393a1.5 1.5 0 00-2.122 2.122l9.546 9.546zM10.5 0v20h3V0h-3z" fill="#3A4443"/></svg><svg fill="none" viewBox="0 0 20 20" id="arrow-nav" xmlns="http://www.w3.org/2000/svg"><path d="M19.458 8.67l-3.622-3.716a1.344 1.344 0 00-1.775-.07 1.245 1.245 0 00-.071 1.722l2.06 2.134H1.277C.568 8.74 0 9.29 0 9.979c0 .688.568 1.239 1.278 1.239H16.12l-2.059 2.133c-.497.482-.426 1.24.071 1.721.213.207.568.345.852.345.355 0 .64-.138.923-.345l3.622-3.717c.64-.826.64-1.927-.07-2.684z" fill="#45525B"/></svg><svg fill="none" viewBox="0 0 22 24" id="arrow-prev" xmlns="http://www.w3.org/2000/svg"><path d="M.94 10.94a1.5 1.5 0 000 2.12l9.545 9.547a1.5 1.5 0 102.122-2.122L4.12 12l8.486-8.485a1.5 1.5 0 10-2.122-2.122L.94 10.94zM22 10.5H2v3h20v-3z" fill="#52503B"/></svg><svg fill="none" viewBox="0 0 20 20" id="bath" xmlns="http://www.w3.org/2000/svg"><path d="M19.416 9.11H3.832V2.779a.74.74 0 01.746-.759h2.5v.957a1.446 1.446 0 00-1.234 1.417v1.451c0 .33.26.594.585.594h2.305a.587.587 0 00.584-.594v-1.45c0-.66-.454-1.22-1.071-1.385V1.427c0-.33-.26-.594-.585-.594H4.578c-1.039 0-1.883.858-1.883 1.913v6.33H.584A.587.587 0 000 9.67c0 .33.26.594.584.594h.78v2.638c0 1.945 1.428 3.56 3.279 3.825l-.714 1.615a.57.57 0 00.292.759.595.595 0 00.227.066.578.578 0 00.52-.33l.909-2.044h9.156l.909 2.044c.097.23.292.33.519.33.065 0 .162 0 .227-.066a.57.57 0 00.293-.759l-.812-1.813a3.913 3.913 0 002.467-3.627v-2.638h.78A.587.587 0 0020 9.67a.58.58 0 00-.584-.56zM8.149 5.285H6.981v-.89c0-.165.13-.297.292-.297h.584c.162 0 .292.132.292.296v.89zm9.351 7.617c0 1.483-1.201 2.736-2.695 2.736h-9.61c-1.461 0-2.695-1.22-2.695-2.736v-2.638h15v2.638z" fill="#45525B"/></svg><svg fill="none" viewBox="0 0 20 20" id="bed" xmlns="http://www.w3.org/2000/svg"><g clip-path="url(#eclip0_4_129)"><path d="M18.654 13.28s0-.033 0 0v-.033l-2.71-6.007V1.98C15.945.91 15.085 0 14 0H5.969C4.916 0 4.023.877 4.023 1.98v5.26l-2.71 6.007a.61.61 0 00-.063.227v5.942c0 .324.255.584.574.584.319 0 .574-.26.574-.584v-1.721h15.204v1.72c0 .325.256.585.574.585.319 0 .574-.26.574-.584v-5.942c-.064-.065-.064-.13-.096-.195zM4.948 7.921h10.04l2.264 5H2.716l2.232-5zm.223-5.941A.83.83 0 016 1.136h8a.83.83 0 01.83.845v4.805H5.17V1.98zM2.398 16.558v-2.5h15.204v2.5H2.398z" fill="#45525B"/></g><defs><clipPath id="eclip0_4_129"><path fill="#fff" d="M0 0h20v20H0z"/></clipPath></defs></svg><svg fill="none" viewBox="0 0 24 24" id="building" xmlns="http://www.w3.org/2000/svg"><path d="M23.883 10.03l.039-.038s0-.038.039-.077c0-.038 0-.038.039-.076V9.8v-.153-.039C23.18 4.981 18.03 1.5 11.98 1.5 5.932 1.5.78 4.98 0 9.571v.268c0 .038 0 .038.039.076 0 .039 0 .039.039.077 0 .038.04.038.04.076l.038.039.04.038.038.038.04.038.038.039s.04.038.078.038c0 0 .04.038.078.038h2.654v10.749h-.624a.693.693 0 00-.703.688c0 .383.312.689.703.689h6.634c.39 0 .702-.306.702-.689a.693.693 0 00-.702-.688h-.586v-10.71h6.947v10.748h-.664a.693.693 0 00-.702.688c0 .383.312.689.702.689h6.634c.39 0 .703-.306.703-.689a.693.693 0 00-.703-.688h-.507V10.374H23.571c.039 0 .039 0 .078-.038.039 0 .039-.038.078-.038l.039-.038.039-.039.039-.038.039-.038v-.115zM11.98 2.84c5.034 0 9.365 2.64 10.458 6.235H1.522C2.615 5.44 6.946 2.839 11.98 2.839zm-4.8 18.284H4.448V10.374H7.18v10.749zm12.41 0h-2.733V10.374h2.732v10.749z" fill="#fff"/></svg><svg fill="none" viewBox="0 0 24 24" id="design" xmlns="http://www.w3.org/2000/svg"><path d="M18.802 15.024c0-1.21-.992-2.185-2.221-2.185h-.278l.912-7.298v-.039c.08-1.443-.436-2.81-1.467-3.863C14.717.585 13.368 0 11.9 0a5.26 5.26 0 00-3.847 1.639c-1.031 1.054-1.547 2.42-1.468 3.863v.04l.913 7.297H7.22c-1.23 0-2.221.976-2.221 2.185v1.678c0 .586.238 1.132.635 1.522v5.074c0 .39.317.702.713.702a.705.705 0 00.714-.702v-4.41h1.864v3.317c0 .39.318.702.714.702a.705.705 0 00.714-.702v-3.317h3.292v3.317c0 .39.317.702.714.702a.705.705 0 00.714-.702v-3.317h1.864v4.41c0 .39.317.702.714.702a.705.705 0 00.713-.702v-5.035c.397-.39.635-.936.635-1.522v-1.717h-.198zM7.895 5.385c-.04-1.053.357-2.068 1.071-2.848a3.963 3.963 0 012.856-1.21c1.11 0 2.102.43 2.855 1.21.754.78 1.15 1.795 1.07 2.848l-.911 7.415H8.847l-.952-7.415zm-.714 12.176a.809.809 0 01-.436-.117c-.04-.04-.08-.04-.119-.078a.81.81 0 01-.317-.625v-1.678c0-.468.396-.82.833-.82H16.5c.476 0 .833.391.833.82v1.678c0 .274-.119.469-.317.625-.04.039-.08.039-.119.078a.809.809 0 01-.436.117h-9.28z" fill="#fff"/></svg><svg fill="none" viewBox="0 0 24 24" id="facebook" xmlns="http://www.w3.org/2000/svg"><path d="M22.645 0H1.355C.58 0 0 .62 0 1.355v21.29C0 23.42.62 24 1.355 24h11.458v-9.329H9.716v-3.6h3.097V8.4c0-3.097 1.858-4.8 4.645-4.8.93 0 1.858.039 2.787.155v3.213h-1.858c-1.47 0-1.78.697-1.78 1.742v2.283h3.522l-.503 3.64h-3.097v9.212h6.116c.774 0 1.355-.58 1.355-1.355V1.355C23.961.58 23.342 0 22.645 0z" fill="#fff"/></svg><svg fill="none" viewBox="0 0 24 24" id="facebook-hover" xmlns="http://www.w3.org/2000/svg"><path d="M22.645 0H1.355C.58 0 0 .62 0 1.355v21.29C0 23.42.62 24 1.355 24h11.458v-9.329H9.716v-3.6h3.097V8.4c0-3.097 1.858-4.8 4.645-4.8.93 0 1.858.039 2.787.155v3.213h-1.858c-1.47 0-1.78.697-1.78 1.742v2.283h3.522l-.503 3.64h-3.097v9.212h6.116c.774 0 1.355-.58 1.355-1.355V1.355C23.961.58 23.342 0 22.645 0z" fill="#ff8a63"/></svg><svg fill="none" viewBox="0 0 24 24" id="in" xmlns="http://www.w3.org/2000/svg"><path d="M22.322 0H1.75C.778 0 0 .774 0 1.742v20.516C0 23.188.778 24 1.75 24h20.495c.972 0 1.75-.774 1.75-1.742V1.703C24.072.774 23.295 0 22.322 0zM7.117 20.4h-3.54V8.98h3.54V20.4zM5.327 7.394a2.045 2.045 0 01-2.06-2.052 2.07 2.07 0 012.06-2.052A2.07 2.07 0 017.39 5.342c0 1.123-.856 2.052-2.061 2.052zM20.535 20.4h-3.54v-5.535c0-1.317-.038-3.059-1.866-3.059-1.867 0-2.139 1.471-2.139 2.942V20.4H9.45V8.98h3.461v1.588h.04c.505-.93 1.632-1.858 3.383-1.858 3.616 0 4.277 2.322 4.277 5.496V20.4h-.078z" fill="#fff"/></svg><svg fill="none" viewBox="0 0 24 24" id="in-hover" xmlns="http://www.w3.org/2000/svg"><path d="M22.322 0H1.75C.778 0 0 .774 0 1.742v20.516C0 23.188.778 24 1.75 24h20.495c.972 0 1.75-.774 1.75-1.742V1.703C24.072.774 23.295 0 22.322 0zM7.117 20.4h-3.54V8.98h3.54V20.4zM5.327 7.394a2.045 2.045 0 01-2.06-2.052 2.07 2.07 0 012.06-2.052A2.07 2.07 0 017.39 5.342c0 1.123-.856 2.052-2.061 2.052zM20.535 20.4h-3.54v-5.535c0-1.317-.038-3.059-1.866-3.059-1.867 0-2.139 1.471-2.139 2.942V20.4H9.45V8.98h3.461v1.588h.04c.505-.93 1.632-1.858 3.383-1.858 3.616 0 4.277 2.322 4.277 5.496V20.4h-.078z" fill="#ff8a63"/></svg><svg fill="none" viewBox="0 0 24 24" id="instagram" xmlns="http://www.w3.org/2000/svg"><path d="M13.894.001c1.648.003 2.118.017 3.158.076 1.318.04 2.17.233 2.945.542.776.31 1.434.697 2.093 1.355s1.085 1.316 1.357 2.13c.27.812.503 1.702.542 2.941.039 1.316-.039 1.742-.039 5.032v2.279c-.003 1.32-.011 1.77-.038 2.638-.04 1.316-.272 2.167-.543 2.942a5.524 5.524 0 01-1.356 2.128c-.66.659-1.318 1.084-2.132 1.355-.814.271-1.628.504-2.945.542-.352.01-.634.018-.922.024l-.218.003c-.369.006-.775.01-1.364.01l-.376.001H10.32c-1.817-.002-2.251-.014-3.305-.076-1.318-.04-2.17-.271-2.946-.542a5.531 5.531 0 01-2.131-1.355c-.66-.658-1.085-1.316-1.357-2.13-.271-.812-.504-1.625-.542-2.941a106.46 106.46 0 01-.02-.705l-.006-.324a88.99 88.99 0 01-.011-1.3L0 14.273V11.38c.004-2.721.04-3.106.076-4.335C.117 5.73.31 4.877.62 4.103c.271-.813.698-1.47 1.356-2.129.66-.658 1.318-1.122 2.132-1.393C4.922.31 5.736.077 7.053.039 7.976.012 8.423.003 9.74 0h4.155zm.198 2.206h-4.079c-.853.001-1.36.005-1.82.013l-.209.004c-.243.005-.486.012-.776.021-1.201.039-1.821.271-2.247.426-.543.232-.93.464-1.357.89-.387.387-.659.813-.891 1.355-.155.465-.388 1.084-.426 2.245-.01.29-.016.532-.022.775l-.004.21c-.008.423-.01.887-.012 1.626v.61l-.001.23V16.8c.039 1.2.271 1.82.426 2.245.271.542.504.93.93 1.355.388.426.814.697 1.357.929.465.155 1.085.387 2.247.426a72.98 72.98 0 002.574.037l.62.001h6.456c1.202-.038 1.822-.27 2.248-.425.543-.271.93-.503 1.356-.93.427-.386.698-.812.93-1.354.156-.465.388-1.084.427-2.245l.023-.67.007-.21c.026-.766.047-1.603.047-3.959v-1.618-.61a72.309 72.309 0 00-.038-2.61c-.04-1.2-.272-1.82-.427-2.246-.271-.542-.504-.929-.93-1.355-.387-.387-.814-.658-1.356-.89-.465-.155-1.085-.387-2.248-.426-.29-.009-.532-.016-.776-.021l-.21-.004c-.459-.009-.965-.012-1.819-.013zm-2.078 3.638c3.45 0 6.2 2.71 6.2 6.155 0 3.445-2.828 6.155-6.2 6.155-3.372 0-6.162-2.71-6.162-6.155a6.15 6.15 0 016.162-6.155zm0 2.13c-2.21 0-4.03 1.819-4.03 4.025a4.025 4.025 0 004.03 4.026A4 4 0 0016.044 12a4 4 0 00-4.03-4.026zm6.472-3.833a1.433 1.433 0 11.002 2.866 1.433 1.433 0 01-.002-2.866z" fill="#fff"/></svg><svg fill="none" viewBox="0 0 24 24" id="instagram-hover" xmlns="http://www.w3.org/2000/svg"><path d="M13.894.001c1.648.003 2.118.017 3.158.076 1.318.04 2.17.233 2.945.542.776.31 1.434.697 2.093 1.355s1.085 1.316 1.357 2.13c.27.812.503 1.702.542 2.941.039 1.316-.039 1.742-.039 5.032v2.279c-.003 1.32-.011 1.77-.038 2.638-.04 1.316-.272 2.167-.543 2.942a5.524 5.524 0 01-1.356 2.128c-.66.659-1.318 1.084-2.132 1.355-.814.271-1.628.504-2.945.542-.352.01-.634.018-.922.024l-.218.003c-.369.006-.775.01-1.364.01l-.376.001H10.32c-1.817-.002-2.251-.014-3.305-.076-1.318-.04-2.17-.271-2.946-.542a5.531 5.531 0 01-2.131-1.355c-.66-.658-1.085-1.316-1.357-2.13-.271-.812-.504-1.625-.542-2.941a106.46 106.46 0 01-.02-.705l-.006-.324a88.99 88.99 0 01-.011-1.3L0 14.273V11.38c.004-2.721.04-3.106.076-4.335C.117 5.73.31 4.877.62 4.103c.271-.813.698-1.47 1.356-2.129.66-.658 1.318-1.122 2.132-1.393C4.922.31 5.736.077 7.053.039 7.976.012 8.423.003 9.74 0h4.155zm.198 2.206h-4.079c-.853.001-1.36.005-1.82.013l-.209.004c-.243.005-.486.012-.776.021-1.201.039-1.821.271-2.247.426-.543.232-.93.464-1.357.89-.387.387-.659.813-.891 1.355-.155.465-.388 1.084-.426 2.245-.01.29-.016.532-.022.775l-.004.21c-.008.423-.01.887-.012 1.626v.61l-.001.23V16.8c.039 1.2.271 1.82.426 2.245.271.542.504.93.93 1.355.388.426.814.697 1.357.929.465.155 1.085.387 2.247.426a72.98 72.98 0 002.574.037l.62.001h6.456c1.202-.038 1.822-.27 2.248-.425.543-.271.93-.503 1.356-.93.427-.386.698-.812.93-1.354.156-.465.388-1.084.427-2.245l.023-.67.007-.21c.026-.766.047-1.603.047-3.959v-1.618-.61a72.309 72.309 0 00-.038-2.61c-.04-1.2-.272-1.82-.427-2.246-.271-.542-.504-.929-.93-1.355-.387-.387-.814-.658-1.356-.89-.465-.155-1.085-.387-2.248-.426-.29-.009-.532-.016-.776-.021l-.21-.004c-.459-.009-.965-.012-1.819-.013zm-2.078 3.638c3.45 0 6.2 2.71 6.2 6.155 0 3.445-2.828 6.155-6.2 6.155-3.372 0-6.162-2.71-6.162-6.155a6.15 6.15 0 016.162-6.155zm0 2.13c-2.21 0-4.03 1.819-4.03 4.025a4.025 4.025 0 004.03 4.026A4 4 0 0016.044 12a4 4 0 00-4.03-4.026zm6.472-3.833a1.433 1.433 0 11.002 2.866 1.433 1.433 0 01-.002-2.866z" fill="#ff8a63"/></svg><svg fill="none" viewBox="0 0 24 24" id="location" xmlns="http://www.w3.org/2000/svg"><path d="M3.701 14.581c.35-.157.74 0 .896.355a.681.681 0 01-.35.906c-1.792.789-2.844 1.774-2.844 2.72 0 1.93 4.324 4.098 10.597 4.098s10.636-2.167 10.597-4.098c0-.946-1.013-1.931-2.766-2.68-.35-.158-.506-.552-.35-.907a.668.668 0 01.896-.354C22.714 15.645 24 17.025 24 18.56 24 21.637 18.857 24 12 24S0 21.675 0 18.562c0-1.537 1.325-2.956 3.701-3.98zM12 0c4.325 0 7.831 3.547 7.831 7.921 0 3.271-4.09 8.394-6.545 11.153-.312.394-.78.591-1.286.591-.507 0-.974-.236-1.286-.591C8.26 16.315 4.17 11.192 4.17 7.92 4.169 3.547 7.675 0 12 0zm0 1.38c-3.545 0-6.468 2.916-6.468 6.541 0 2.01 2.338 5.833 6.195 10.207.078.118.234.118.273.118.039 0 .156 0 .273-.118 3.896-4.374 6.195-8.197 6.195-10.207 0-3.625-2.922-6.542-6.468-6.542z" fill="#fff"/></svg><svg fill="none" viewBox="0 0 102 37" id="logo" xmlns="http://www.w3.org/2000/svg"><path fill-rule="evenodd" clip-rule="evenodd" d="M57.593 24.582c1.414 0 2.543.358 3.386 1.074.843.716 1.308 1.683 1.394 2.898H59.5c-.042-.478-.239-.857-.589-1.139-.35-.283-.818-.423-1.404-.423-.543 0-.96.1-1.254.303a.973.973 0 00-.44.847c0 .405.201.713.6.923.401.21 1.023.423 1.866.64.858.217 1.565.442 2.122.674a3.743 3.743 0 011.446 1.074c.407.485.618 1.125.632 1.921a3.22 3.22 0 01-.568 1.868c-.378.55-.921.98-1.629 1.291-.707.311-1.532.467-2.475.467-.972 0-1.843-.178-2.614-.532-.772-.354-1.383-.835-1.833-1.443a3.695 3.695 0 01-.74-2.02h3.023c.056.464.282.847.675 1.151.392.304.882.456 1.468.456.57 0 1.018-.116 1.339-.347.322-.231.483-.528.483-.89 0-.39-.197-.684-.59-.88-.393-.196-1.018-.408-1.875-.64-.886-.217-1.611-.442-2.175-.673a3.78 3.78 0 01-1.458-1.064c-.407-.478-.61-1.122-.61-1.933 0-.665.189-1.273.567-1.823.379-.55.922-.984 1.63-1.303.706-.318 1.538-.477 2.496-.477zm17.746 0c.885 0 1.66.181 2.325.542.665.363 1.197.818 1.597 1.368v-1.715h3.022v12.028H79.26v-1.76c-.386.565-.918 1.032-1.597 1.4-.678.37-1.46.555-2.347.555-1 0-1.91-.26-2.732-.782-.822-.52-1.472-1.255-1.951-2.203-.479-.948-.718-2.037-.718-3.268 0-1.216.24-2.294.718-3.235.479-.94 1.129-1.663 1.951-2.17.822-.507 1.739-.76 2.754-.76zm20.81 0c1.128 0 2.14.245 3.033.737a5.176 5.176 0 012.079 2.096c.493.905.739 1.943.739 3.116 0 .434-.029.824-.085 1.172h-8.68c.07.869.37 1.549.9 2.04.528.493 1.178.738 1.95.738 1.114 0 1.908-.484 2.379-1.454h3.236a5.479 5.479 0 01-1.972 2.855c-.971.746-2.164 1.118-3.58 1.118-1.142 0-2.167-.257-3.075-.77a5.399 5.399 0 01-2.122-2.182c-.506-.941-.76-2.027-.76-3.258 0-1.243.25-2.336.75-3.278.5-.94 1.2-1.663 2.1-2.17.9-.507 1.937-.76 3.108-.76zm-44.322-2.954v2.476h-5.68v3.8h5.038v2.41h-5.038v4.015h5.68v2.476h-8.68V21.628h8.68zm15.325.174v2.975h2.657v2.496h-2.657v5.82c0 .404.096.697.289.879.193.18.517.27.975.27h1.393v2.563h-1.886c-2.53 0-3.794-1.245-3.794-3.734v-5.797h-1.415v-2.497h1.415v-2.975h3.023zm20.275 0v2.975h2.657v2.496h-2.657v5.82c0 .404.096.697.289.879.193.18.518.27.976.27h1.393v2.563h-1.887c-2.53 0-3.794-1.245-3.794-3.734v-5.797H82.99v-2.497h1.414v-2.975h3.023zm-11.317 5.45c-.558 0-1.071.137-1.543.413-.472.275-.853.677-1.147 1.204-.293.53-.439 1.154-.439 1.878s.146 1.357.44 1.9c.292.543.678.959 1.157 1.249.479.29.99.433 1.532.433.557 0 1.079-.14 1.565-.423a3.05 3.05 0 001.158-1.215c.285-.529.428-1.162.428-1.9s-.143-1.372-.428-1.9a3.05 3.05 0 00-1.158-1.216 3.064 3.064 0 00-1.565-.422zm19.954-.174c-.744 0-1.369.228-1.876.684-.507.456-.818 1.09-.932 1.9h5.637c-.015-.781-.293-1.408-.837-1.878-.542-.47-1.207-.706-1.992-.706z" fill="#45525B"/><path fill-rule="evenodd" clip-rule="evenodd" d="M20.859 0l15.076 15.307v21.498h-3.498V16.773L18.383 2.508 20.858 0zm-9.891 10.033l10.967 11.138v15.634H0V21.17l10.968-11.138zm4.945-5.016L28.94 18.239v18.565h-3.498V19.705L13.444 7.525l2.47-2.508z" fill="#FF8A63"/></svg><svg fill="none" viewBox="0 0 128 102" id="logo-vert" xmlns="http://www.w3.org/2000/svg"><path fill-rule="evenodd" clip-rule="evenodd" d="M31.418 75.263c3.076 0 5.53.77 7.365 2.313 1.834 1.542 2.843 3.623 3.031 6.24h-6.248c-.093-1.029-.52-1.847-1.28-2.454-.763-.608-1.782-.91-3.054-.91-1.182 0-2.09.217-2.728.654-.637.435-.955 1.044-.955 1.822 0 .873.436 1.535 1.304 1.988.87.45 2.223.911 4.057 1.379 1.865.466 3.403.95 4.615 1.449 1.212.498 2.26 1.268 3.145 2.313.886 1.044 1.345 2.423 1.375 4.137 0 1.494-.412 2.835-1.234 4.02-.824 1.183-2.005 2.112-3.544 2.781-1.538.67-3.332 1.005-5.383 1.005-2.114 0-4.01-.383-5.686-1.145-1.679-.763-3.008-1.8-3.987-3.108-.979-1.309-1.514-2.758-1.608-4.348h6.573c.124.998.613 1.824 1.469 2.478.853.655 1.918.981 3.192.981 1.243 0 2.215-.249 2.914-.747.7-.498 1.048-1.137 1.048-1.917 0-.841-.427-1.473-1.282-1.893-.854-.422-2.213-.88-4.078-1.379-1.927-.467-3.503-.95-4.73-1.45a8.221 8.221 0 01-3.172-2.289c-.886-1.03-1.328-2.415-1.328-4.162 0-1.432.412-2.74 1.235-3.925.824-1.185 2.005-2.12 3.543-2.806 1.539-.685 3.348-1.028 5.43-1.028zm38.596 0c1.925 0 3.612.39 5.057 1.168 1.445.78 2.603 1.76 3.473 2.944v-3.692h6.572v25.897h-6.572v-3.788c-.838 1.216-1.997 2.222-3.473 3.015-1.476.795-3.177 1.193-5.104 1.193-2.175 0-4.156-.561-5.943-1.684-1.788-1.12-3.201-2.702-4.243-4.743-1.041-2.041-1.56-4.386-1.56-7.036 0-2.617.519-4.938 1.56-6.965 1.042-2.024 2.455-3.581 4.243-4.673 1.787-1.09 3.783-1.636 5.99-1.636zm45.261 0c2.454 0 4.654.528 6.596 1.588a11.19 11.19 0 014.522 4.512C127.465 83.31 128 85.545 128 88.07c0 .934-.063 1.775-.186 2.524h-18.879c.156 1.87.809 3.334 1.958 4.394 1.149 1.059 2.565 1.588 4.241 1.588 2.424 0 4.15-1.043 5.174-3.13h7.04c-.746 2.492-2.176 4.542-4.289 6.147-2.113 1.605-4.708 2.406-7.784 2.406-2.487 0-4.716-.554-6.69-1.659-1.973-1.107-3.511-2.672-4.615-4.698-1.102-2.025-1.654-4.363-1.654-7.013 0-2.678.543-5.03 1.631-7.058 1.087-2.024 2.61-3.582 4.569-4.674 1.958-1.09 4.211-1.635 6.759-1.635zm-96.396-6.359v5.33H6.525v8.18H17.48v5.19H6.525v8.646h12.354v5.329H0V68.905h18.879zm33.329.375v6.404h5.78v5.375h-5.78v12.53c0 .87.208 1.502.628 1.892.42.39 1.127.584 2.122.584h3.03v5.515h-4.103c-5.501 0-8.252-2.68-8.252-8.04V81.06h-3.076v-5.376h3.076V69.28h6.575zm44.097 0v6.404h5.78v5.375h-5.78v12.53c0 .87.209 1.502.628 1.892.42.39 1.127.584 2.122.584h3.03v5.515h-4.103c-5.5 0-8.251-2.68-8.251-8.04V81.06h-3.076v-5.376h3.076V69.28h6.574zM71.691 81.013c-1.212 0-2.33.294-3.355.888-1.026.592-1.857 1.457-2.495 2.593-.637 1.139-.955 2.485-.955 4.043 0 1.56.318 2.921.955 4.091.638 1.168 1.477 2.064 2.517 2.688a6.374 6.374 0 003.333.934 6.717 6.717 0 003.405-.911c1.054-.607 1.894-1.48 2.517-2.617.62-1.138.93-2.501.93-4.091 0-1.59-.31-2.952-.93-4.09-.623-1.138-1.463-2.01-2.517-2.617a6.717 6.717 0 00-3.405-.911zm43.397-.375c-1.615 0-2.976.49-4.079 1.472-1.103.982-1.779 2.346-2.028 4.09h12.261c-.033-1.682-.638-3.03-1.82-4.042-1.179-1.014-2.625-1.52-4.334-1.52z" fill="#45525B"/><path fill-rule="evenodd" clip-rule="evenodd" d="M68.459 0L91.71 23.37v32.821h-5.396V25.608L64.64 3.83 68.459 0zM53.205 15.318l16.914 17.005v23.868H36.29V32.323l16.916-17.005zm7.627-7.66L80.92 27.847v28.345h-5.396V30.084L57.023 11.49l3.808-3.83z" fill="#FF8A63"/></svg><svg fill="none" viewBox="0 0 102 37" id="logo-white" xmlns="http://www.w3.org/2000/svg"><path fill-rule="evenodd" clip-rule="evenodd" d="M57.593 24.582c1.414 0 2.543.358 3.386 1.074.843.716 1.308 1.683 1.394 2.898H59.5c-.042-.478-.239-.857-.589-1.139-.35-.283-.818-.423-1.404-.423-.543 0-.96.1-1.254.303a.973.973 0 00-.44.847c0 .405.201.713.6.923.401.21 1.023.423 1.866.64.858.217 1.565.442 2.122.674a3.743 3.743 0 011.446 1.074c.407.485.618 1.125.632 1.921a3.22 3.22 0 01-.568 1.868c-.378.55-.921.98-1.629 1.291-.707.311-1.532.467-2.475.467-.972 0-1.843-.178-2.614-.532-.772-.354-1.383-.835-1.833-1.443a3.695 3.695 0 01-.74-2.02h3.023c.056.464.282.847.675 1.151.392.304.882.456 1.468.456.57 0 1.018-.116 1.339-.347.322-.231.483-.528.483-.89 0-.39-.197-.684-.59-.88-.393-.196-1.018-.408-1.875-.64-.886-.217-1.611-.442-2.175-.673a3.78 3.78 0 01-1.458-1.064c-.407-.478-.61-1.122-.61-1.933 0-.665.189-1.273.567-1.823.379-.55.922-.984 1.63-1.303.706-.318 1.538-.477 2.496-.477zm17.746 0c.885 0 1.66.181 2.325.542.665.363 1.197.818 1.597 1.368v-1.715h3.022v12.028H79.26v-1.76c-.386.565-.918 1.032-1.597 1.4-.678.37-1.46.555-2.347.555-1 0-1.91-.26-2.732-.782-.822-.52-1.472-1.255-1.951-2.203-.479-.948-.718-2.037-.718-3.268 0-1.216.24-2.294.718-3.235.479-.94 1.129-1.663 1.951-2.17.822-.507 1.739-.76 2.754-.76zm20.81 0c1.128 0 2.14.245 3.033.737a5.176 5.176 0 012.079 2.096c.493.905.739 1.943.739 3.116 0 .434-.029.824-.085 1.172h-8.68c.07.869.37 1.549.9 2.04.528.493 1.178.738 1.95.738 1.114 0 1.908-.484 2.379-1.454h3.236a5.479 5.479 0 01-1.972 2.855c-.971.746-2.164 1.118-3.58 1.118-1.142 0-2.167-.257-3.075-.77a5.399 5.399 0 01-2.122-2.182c-.506-.941-.76-2.027-.76-3.258 0-1.243.25-2.336.75-3.278.5-.94 1.2-1.663 2.1-2.17.9-.507 1.937-.76 3.108-.76zm-44.322-2.954v2.476h-5.68v3.8h5.038v2.41h-5.038v4.015h5.68v2.476h-8.68V21.628h8.68zm15.325.174v2.975h2.657v2.496h-2.657v5.82c0 .404.096.697.289.879.193.18.517.27.975.27h1.393v2.563h-1.886c-2.53 0-3.794-1.245-3.794-3.734v-5.797h-1.415v-2.497h1.415v-2.975h3.023zm20.275 0v2.975h2.657v2.496h-2.657v5.82c0 .404.096.697.289.879.193.18.518.27.976.27h1.393v2.563h-1.887c-2.53 0-3.794-1.245-3.794-3.734v-5.797H82.99v-2.497h1.414v-2.975h3.023zm-11.317 5.45c-.558 0-1.071.137-1.543.413-.472.275-.853.677-1.147 1.204-.293.53-.439 1.154-.439 1.878s.146 1.357.44 1.9c.292.543.678.959 1.157 1.249.479.29.99.433 1.532.433.557 0 1.079-.14 1.565-.423a3.05 3.05 0 001.158-1.215c.285-.529.428-1.162.428-1.9s-.143-1.372-.428-1.9a3.05 3.05 0 00-1.158-1.216 3.064 3.064 0 00-1.565-.422zm19.954-.174c-.744 0-1.369.228-1.876.684-.507.456-.818 1.09-.932 1.9h5.637c-.015-.781-.293-1.408-.837-1.878-.542-.47-1.207-.706-1.992-.706zM20.859 0l15.076 15.307v21.498h-3.498V16.773L18.383 2.508 20.858 0zm-9.891 10.033l10.967 11.138v15.634H0V21.17l10.968-11.138zm4.945-5.016L28.94 18.239v18.565h-3.498V19.705L13.444 7.525l2.47-2.508z" fill="#FFF"/></svg><svg fill="none" viewBox="0 0 20 20" id="room" xmlns="http://www.w3.org/2000/svg"><path d="M15.22 0c.996 0 1.831.813 1.863 1.854v16.26c0 1.04-.835 1.886-1.863 1.886H4.78a1.876 1.876 0 01-1.863-1.886V1.854C2.917.813 3.752 0 4.747 0H15.22zm-.032 1.106H4.748a.752.752 0 00-.74.748v16.26c0 .423.354.748.74.748h10.44a.752.752 0 00.739-.748V1.854a.752.752 0 00-.739-.748zm-1.703 7.577a1.11 1.11 0 011.093 1.106 1.09 1.09 0 01-1.093 1.105 1.09 1.09 0 01-1.092-1.105 1.09 1.09 0 011.092-1.106z" fill="#45525B"/></svg><svg fill="none" viewBox="0 0 18 18" id="star" xmlns="http://www.w3.org/2000/svg"><path d="M17.593 6.49l-5.62-.87L9.427.28a.478.478 0 00-.87 0L6.011 5.65.422 6.49c-.404.063-.559.59-.248.87L4.24 11.55 3.28 17.42c-.062.404.341.745.714.497l5.061-2.764 5.03 2.764c.342.186.776-.124.683-.497l-.962-5.869 4.067-4.191c.248-.28.124-.807-.28-.87z" fill="#52503B"/></svg><svg fill="none" viewBox="0 0 18 18" id="star-empty" xmlns="http://www.w3.org/2000/svg"><path d="M17.932 6.78c-.12-.36-.42-.63-.78-.69l-5.01-.78L9.892.57a.986.986 0 00-.9-.57c-.39 0-.72.21-.87.57l-2.25 4.77-5.04.81c-.36.06-.66.33-.78.69-.12.36-.03.78.24 1.05l3.63 3.72-.84 5.19c-.06.39.09.78.42 1.02.18.12.36.18.54.18.15 0 .33-.03.45-.12l4.5-2.46 4.47 2.43c.33.18.72.15 1.02-.06.33-.24.48-.63.42-1.02l-.84-5.22 3.63-3.72c.27-.27.36-.69.24-1.05zm-.69.63l-3.6 3.72c-.12.12-.18.33-.15.51l.84 5.22c.03.21-.06.36-.18.42-.06.03-.21.12-.39.03l-4.5-2.43a.574.574 0 00-.54 0l-4.5 2.46c-.18.09-.33.03-.39-.03a.467.467 0 01-.18-.42l.87-5.19a.616.616 0 00-.15-.51L.742 7.47a.46.46 0 01-.12-.45c.06-.15.15-.24.3-.27l5.04-.81c.18-.03.36-.15.42-.33L8.632.84c.09-.15.21-.24.36-.24s.27.09.33.24l2.25 4.77c.09.18.24.3.42.33l5.01.78c.15.03.27.12.3.27.09.09.09.3-.06.42z" fill="#52503B"/></svg><svg fill="none" viewBox="0 0 24 24" id="twitter" xmlns="http://www.w3.org/2000/svg"><path d="M7.471 22.165c9.136 0 14.09-7.549 14.09-14.09 0-.156 0-.427-.038-.659A10.35 10.35 0 0024 4.861a9.32 9.32 0 01-2.826.774 4.792 4.792 0 002.168-2.748c-.968.542-1.974.968-3.174 1.2C19.238 3.12 18 2.5 16.568 2.5a5.006 5.006 0 00-4.994 4.994c0 .387.039.774.116 1.16C7.703 8.385 4.065 6.41 1.587 3.43 1.161 4.203.93 5.016.93 5.906c0 1.742.89 3.213 2.245 4.104A5.384 5.384 0 01.93 9.39v.039c0 2.361 1.703 4.413 3.948 4.877-.425.117-.89.155-1.238.155-.31 0-.658-.038-.93-.116.659 1.974 2.478 3.407 4.646 3.445-1.703 1.317-3.832 2.13-6.116 2.13-.465.077-.852 0-1.239-.04 2.09 1.472 4.684 2.285 7.471 2.285z" fill="#fff"/></svg><svg fill="none" viewBox="0 0 24 24" id="twitter-hover" xmlns="http://www.w3.org/2000/svg"><path d="M7.471 22.165c9.136 0 14.09-7.549 14.09-14.09 0-.156 0-.427-.038-.659A10.35 10.35 0 0024 4.861a9.32 9.32 0 01-2.826.774 4.792 4.792 0 002.168-2.748c-.968.542-1.974.968-3.174 1.2C19.238 3.12 18 2.5 16.568 2.5a5.006 5.006 0 00-4.994 4.994c0 .387.039.774.116 1.16C7.703 8.385 4.065 6.41 1.587 3.43 1.161 4.203.93 5.016.93 5.906c0 1.742.89 3.213 2.245 4.104A5.384 5.384 0 01.93 9.39v.039c0 2.361 1.703 4.413 3.948 4.877-.425.117-.89.155-1.238.155-.31 0-.658-.038-.93-.116.659 1.974 2.478 3.407 4.646 3.445-1.703 1.317-3.832 2.13-6.116 2.13-.465.077-.852 0-1.239-.04 2.09 1.472 4.684 2.285 7.471 2.285z" fill="#ff8a63"/></svg></svg>